<svg xmlns="http://www.w3.org/2000/svg" version="1.1" xmlns:xlink="http://www.w3.org/1999/xlink" xmlns:svgjs="http://svgjs.dev/svgjs" viewBox="0 0 19.31454581365098 3.335265609398112"><g transform="matrix(1,0,0,1,6.070919397074541,0.6654460504376927)"><rect width="19.31454581365098" height="19.31454581365098" x="-6.07091939707454" y="-8.655086152564127" fill="#d4d6c9"></rect><g><path d=" M 0.31725000000000003 1.131 Q 0.1845 1.053 0.1155 0.91575 Q 0.0465 0.7785 0.0465 0.603 Q 0.0465 0.4214999999999999 0.1155 0.2849999999999999 Q 0.1845 0.14849999999999985 0.3165 0.07424999999999993 Q 0.4485 0 0.633 0 Q 0.8175 0 0.9495 0.07424999999999993 Q 1.0815000000000001 0.14849999999999985 1.1505 0.2849999999999999 Q 1.2195 0.4214999999999999 1.2195 0.603 Q 1.2195 0.7785 1.1505 0.91575 Q 1.0815000000000001 1.053 0.94875 1.131 Q 0.8160000000000001 1.2089999999999999 0.633 1.2089999999999999 Q 0.45 1.2089999999999999 0.31725000000000003 1.131 M 0.7545000000000001 0.8534999999999999 Q 0.7965 0.7575 0.7965 0.597 Q 0.7965 0.44099999999999995 0.756 0.35024999999999995 Q 0.7155 0.25949999999999995 0.633 0.25949999999999995 Q 0.5505 0.25949999999999995 0.51 0.35024999999999995 Q 0.46950000000000003 0.44099999999999995 0.46950000000000003 0.597 Q 0.46950000000000003 0.7575 0.5115000000000001 0.8534999999999999 Q 0.5535 0.9494999999999999 0.633 0.9494999999999999 Q 0.7125 0.9494999999999999 0.7545000000000001 0.8534999999999999 M 1.3785278320312502 0.9255 L 1.49252783203125 0.9255 L 1.49252783203125 0.28049999999999997 L 1.38152783203125 0.28049999999999997 L 1.38152783203125 0.020999999999999908 L 2.00552783203125 0.020999999999999908 Q 2.22002783203125 0.020999999999999908 2.35877783203125 0.09375 Q 2.49752783203125 0.16649999999999987 2.49752783203125 0.35849999999999993 Q 2.49752783203125 0.582 2.3760278320312502 0.6802499999999999 Q 2.25452783203125 0.7785 2.01152783203125 0.7785 Q 1.9515278320312501 0.7785 1.90202783203125 0.7709999999999999 L 1.90202783203125 0.9255 L 2.00852783203125 0.9255 L 2.00852783203125 1.188 L 1.3785278320312502 1.188 L 1.3785278320312502 0.9255 M 1.9335278320312501 0.5399999999999999 Q 2.10002783203125 0.5399999999999999 2.10002783203125 0.3929999999999999 Q 2.10002783203125 0.33899999999999997 2.0632778320312504 0.30974999999999997 Q 2.02652783203125 0.28049999999999997 1.9650278320312502 0.28049999999999997 L 1.90352783203125 0.28049999999999997 L 1.90352783203125 0.5399999999999999 L 1.9335278320312501 0.5399999999999999 M 2.832003662109375 1.188 L 2.832003662109375 0.9239999999999999 L 2.9520036621093753 0.9239999999999999 L 2.9520036621093753 0.28049999999999997 L 2.8485036621093753 0.28049999999999997 L 2.817003662109375 0.48149999999999993 L 2.6115036621093752 0.48149999999999993 L 2.6115036621093752 0.022499999999999964 L 3.708003662109375 0.022499999999999964 L 3.708003662109375 0.48149999999999993 L 3.5025036621093752 0.48149999999999993 L 3.4710036621093754 0.28049999999999997 L 3.3645036621093753 0.28049999999999997 L 3.3645036621093753 0.9239999999999999 L 3.4845036621093755 0.9239999999999999 L 3.4845036621093755 1.188 L 2.832003662109375 1.188 M 3.8730205078125004 1.188 L 3.8730205078125004 0.9299999999999999 L 3.9900205078125004 0.9299999999999999 L 3.9900205078125004 0.28049999999999997 L 3.8730205078125004 0.28049999999999997 L 3.8730205078125004 0.022499999999999964 L 4.4820205078125 0.022499999999999964 L 4.4820205078125 0.28049999999999997 L 4.365020507812501 0.28049999999999997 L 4.365020507812501 0.9299999999999999 L 4.4820205078125 0.9299999999999999 L 4.4820205078125 1.188 L 3.8730205078125004 1.188 M 4.606541748046875 0.9255 L 4.720541748046876 0.9255 L 4.720541748046876 0.28049999999999997 L 4.609541748046875 0.28049999999999997 L 4.609541748046875 0.020999999999999908 L 5.233541748046876 0.020999999999999908 Q 5.448041748046876 0.020999999999999908 5.586791748046876 0.09375 Q 5.725541748046876 0.16649999999999987 5.725541748046876 0.35849999999999993 Q 5.725541748046876 0.582 5.604041748046876 0.6802499999999999 Q 5.482541748046875 0.7785 5.239541748046875 0.7785 Q 5.1795417480468755 0.7785 5.130041748046875 0.7709999999999999 L 5.130041748046875 0.9255 L 5.236541748046876 0.9255 L 5.236541748046876 1.188 L 4.606541748046875 1.188 L 4.606541748046875 0.9255 M 5.161541748046876 0.5399999999999999 Q 5.328041748046876 0.5399999999999999 5.328041748046876 0.3929999999999999 Q 5.328041748046876 0.33899999999999997 5.291291748046875 0.30974999999999997 Q 5.254541748046876 0.28049999999999997 5.193041748046875 0.28049999999999997 L 5.1315417480468755 0.28049999999999997 L 5.1315417480468755 0.5399999999999999 L 5.161541748046876 0.5399999999999999 M 5.887517578125001 0.9299999999999999 L 6.004517578125001 0.9299999999999999 L 6.004517578125001 0.28049999999999997 L 5.887517578125001 0.28049999999999997 L 5.887517578125001 0.022499999999999964 L 6.636017578125001 0.022499999999999964 Q 6.817517578125001 0.022499999999999964 6.903017578125001 0.09599999999999986 Q 6.988517578125001 0.16949999999999998 6.988517578125001 0.33899999999999997 Q 6.988517578125001 0.45299999999999996 6.924767578125001 0.5145 Q 6.861017578125001 0.576 6.744017578125002 0.597 Q 6.849017578125001 0.6134999999999999 6.895517578125001 0.67575 Q 6.942017578125001 0.738 6.942017578125001 0.831 L 6.942017578125001 0.9255 L 7.105517578125001 0.9255 L 7.105517578125001 1.188 L 6.870017578125001 1.188 Q 6.756017578125001 1.188 6.706517578125001 1.173 Q 6.657017578125001 1.158 6.630767578125001 1.0905 Q 6.604517578125001 1.023 6.604517578125001 0.8654999999999999 Q 6.604517578125001 0.7754999999999999 6.575267578125001 0.732 Q 6.546017578125001 0.6884999999999999 6.468017578125001 0.6884999999999999 L 6.379517578125001 0.6884999999999999 L 6.379517578125001 0.9299999999999999 L 6.496517578125001 0.9299999999999999 L 6.496517578125001 1.188 L 5.887517578125001 1.188 L 5.887517578125001 0.9299999999999999 M 6.480017578125001 0.5219999999999999 Q 6.559517578125001 0.5219999999999999 6.598517578125001 0.49349999999999994 Q 6.637517578125001 0.46499999999999997 6.637517578125001 0.3929999999999999 Q 6.637517578125001 0.3404999999999999 6.597767578125001 0.3104999999999999 Q 6.558017578125001 0.28049999999999997 6.495017578125001 0.28049999999999997 L 6.379517578125001 0.28049999999999997 L 6.379517578125001 0.5219999999999999 L 6.480017578125001 0.5219999999999999 M 7.428795410156251 1.131 Q 7.2960454101562515 1.053 7.227045410156252 0.91575 Q 7.158045410156252 0.7785 7.158045410156252 0.603 Q 7.158045410156252 0.4214999999999999 7.227045410156252 0.2849999999999999 Q 7.2960454101562515 0.14849999999999985 7.428045410156251 0.07424999999999993 Q 7.560045410156252 0 7.744545410156252 0 Q 7.9290454101562515 0 8.061045410156252 0.07424999999999993 Q 8.193045410156252 0.14849999999999985 8.26204541015625 0.2849999999999999 Q 8.331045410156252 0.4214999999999999 8.331045410156252 0.603 Q 8.331045410156252 0.7785 8.26204541015625 0.91575 Q 8.193045410156252 1.053 8.060295410156252 1.131 Q 7.9275454101562515 1.2089999999999999 7.744545410156252 1.2089999999999999 Q 7.561545410156252 1.2089999999999999 7.428795410156251 1.131 M 7.866045410156252 0.8534999999999999 Q 7.908045410156252 0.7575 7.908045410156252 0.597 Q 7.908045410156252 0.44099999999999995 7.867545410156252 0.35024999999999995 Q 7.827045410156252 0.25949999999999995 7.744545410156252 0.25949999999999995 Q 7.662045410156251 0.25949999999999995 7.621545410156251 0.35024999999999995 Q 7.581045410156252 0.44099999999999995 7.581045410156252 0.597 Q 7.581045410156252 0.7575 7.6230454101562515 0.8534999999999999 Q 7.665045410156251 0.9494999999999999 7.744545410156252 0.9494999999999999 Q 7.824045410156252 0.9494999999999999 7.866045410156252 0.8534999999999999 M 8.476573242187502 1.188 L 8.476573242187502 0.9299999999999999 L 8.617573242187502 0.9299999999999999 L 8.617573242187502 0.28049999999999997 L 8.476573242187502 0.28049999999999997 L 8.476573242187502 0.022499999999999964 L 9.105073242187503 0.022499999999999964 L 9.331573242187503 0.5834999999999999 L 9.555073242187502 0.022499999999999964 L 10.141573242187501 0.022499999999999964 L 10.141573242187501 0.28049999999999997 L 10.000573242187503 0.28049999999999997 L 10.000573242187503 0.9299999999999999 L 10.141573242187501 0.9299999999999999 L 10.141573242187501 1.188 L 9.531073242187503 1.188 L 9.531073242187503 0.9299999999999999 L 9.625573242187503 0.9299999999999999 L 9.625573242187503 0.4949999999999999 L 9.367573242187502 1.188 L 9.156073242187503 1.188 L 8.851573242187502 0.4784999999999999 L 8.851573242187502 0.9299999999999999 L 8.968573242187503 0.9299999999999999 L 8.968573242187503 1.188 L 8.476573242187502 1.188 M 10.242103271484378 0.9255 L 10.356103271484377 0.9255 L 10.356103271484377 0.28049999999999997 L 10.245103271484378 0.28049999999999997 L 10.245103271484378 0.020999999999999908 L 10.869103271484377 0.020999999999999908 Q 11.083603271484378 0.020999999999999908 11.222353271484378 0.09375 Q 11.361103271484378 0.16649999999999987 11.361103271484378 0.35849999999999993 Q 11.361103271484378 0.582 11.239603271484377 0.6802499999999999 Q 11.118103271484378 0.7785 10.875103271484377 0.7785 Q 10.815103271484379 0.7785 10.765603271484379 0.7709999999999999 L 10.765603271484379 0.9255 L 10.872103271484377 0.9255 L 10.872103271484377 1.188 L 10.242103271484378 1.188 L 10.242103271484378 0.9255 M 10.797103271484378 0.5399999999999999 Q 10.963603271484377 0.5399999999999999 10.963603271484377 0.3929999999999999 Q 10.963603271484377 0.33899999999999997 10.926853271484378 0.30974999999999997 Q 10.890103271484378 0.28049999999999997 10.828603271484377 0.28049999999999997 L 10.767103271484377 0.28049999999999997 L 10.767103271484377 0.5399999999999999 L 10.797103271484378 0.5399999999999999 M 11.695579101562503 1.188 L 11.695579101562503 0.9239999999999999 L 11.815579101562504 0.9239999999999999 L 11.815579101562504 0.28049999999999997 L 11.712079101562503 0.28049999999999997 L 11.680579101562504 0.48149999999999993 L 11.475079101562503 0.48149999999999993 L 11.475079101562503 0.022499999999999964 L 12.571579101562504 0.022499999999999964 L 12.571579101562504 0.48149999999999993 L 12.366079101562503 0.48149999999999993 L 12.334579101562504 0.28049999999999997 L 12.228079101562503 0.28049999999999997 L 12.228079101562503 0.9239999999999999 L 12.348079101562503 0.9239999999999999 L 12.348079101562503 1.188 L 11.695579101562503 1.188" fill="#343432" fill-rule="nonzero"></path></g><g><path d=" M 0.4663529829545454 1.868542542613636 Q 0.4663529829545454 1.9409857244318176 0.40496271306818177 1.9726796164772722 Q 0.3435724431818182 2.0043735085227268 0.2708629261363636 2.0043735085227268 L 0.029296874999999997 2.0043735085227268 Q 0.019975142045454544 2.0043735085227268 0.014781605113636362 1.9975819602272722 Q 0.00958806818181818 1.9907904119318176 0.00958806818181818 1.9820013494318176 Q 0.00958806818181818 1.9721469460227268 0.014115767045454544 1.9648227272727268 Q 0.018643465909090908 1.9574985085227268 0.028764204545454544 1.9574985085227268 L 0.09907670454545454 1.9574985085227268 L 0.09907670454545454 1.5947499289772722 L 0.04234730113636363 1.5947499289772722 Q 0.03302556818181818 1.5947499289772722 0.02796519886363636 1.5879583806818176 Q 0.022904829545454544 1.5811668323863632 0.022904829545454544 1.5723777698863632 Q 0.022904829545454544 1.5625233664772722 0.027299360795454544 1.5551991477272722 Q 0.031693892045454544 1.5478749289772722 0.04181463068181818 1.5478749289772722 L 0.25941051136363635 1.5478749289772722 Q 0.32492897727272724 1.5478749289772722 0.3731356534090909 1.5723777698863632 Q 0.42134232954545453 1.596880610795454 0.42134232954545453 1.6637307528409087 Q 0.42134232954545453 1.6970226562499995 0.40229936079545453 1.718462642045454 Q 0.38325639204545453 1.7399026278409087 0.35715553977272724 1.7468273437499995 Q 0.40136718749999994 1.7529530539772722 0.4338600852272727 1.7815840909090905 Q 0.4663529829545454 1.8102151278409087 0.4663529829545454 1.868542542613636 L 0.4663529829545454 1.868542542613636 M 0.3997691761363636 1.862683167613636 Q 0.3997691761363636 1.8024914062499995 0.36341441761363635 1.7881093039772722 Q 0.32705965909090906 1.773727201704545 0.28125 1.773727201704545 L 0.1613991477272727 1.773727201704545 L 0.1613991477272727 1.9574985085227268 L 0.2716619318181818 1.9574985085227268 Q 0.32759232954545453 1.9574985085227268 0.36368075284090906 1.9368575284090905 Q 0.3997691761363636 1.916216548295454 0.3997691761363636 1.862683167613636 L 0.3997691761363636 1.862683167613636 M 0.36780894886363635 1.6669267755681814 Q 0.36780894886363635 1.626177485795454 0.3391779119318182 1.6104637073863632 Q 0.310546875 1.5947499289772722 0.2644708806818182 1.5947499289772722 L 0.1613991477272727 1.5947499289772722 L 0.1613991477272727 1.7393699573863632 L 0.28125 1.7393699573863632 Q 0.3134765625 1.7393699573863632 0.3406427556818182 1.7223245028409087 Q 0.36780894886363635 1.705279048295454 0.36780894886363635 1.6669267755681814 L 0.36780894886363635 1.6669267755681814 M 0.9572088068181817 1.5702470880681814 Q 0.9572088068181817 1.5801014914772722 0.9526811079545454 1.5874257102272722 Q 0.948153409090909 1.5947499289772722 0.9380326704545454 1.5947499289772722 L 0.9010120738636362 1.5947499289772722 L 0.7686434659090908 1.811813139204545 L 0.7686434659090908 1.9574985085227268 L 0.828036221590909 1.9574985085227268 Q 0.8381569602272727 1.9574985085227268 0.8425514914772727 1.9648227272727268 Q 0.8469460227272727 1.9721469460227268 0.8469460227272727 1.9820013494318176 Q 0.8469460227272727 1.9907904119318176 0.8418856534090908 1.9975819602272722 Q 0.836825284090909 2.0043735085227268 0.8275035511363635 2.0043735085227268 L 0.6365411931818181 2.0043735085227268 Q 0.6272194602272727 2.0043735085227268 0.6220259232954545 1.9975819602272722 Q 0.6168323863636362 1.9907904119318176 0.6168323863636362 1.9820013494318176 Q 0.6168323863636362 1.9721469460227268 0.6213600852272727 1.9648227272727268 Q 0.6258877840909091 1.9574985085227268 0.6360085227272727 1.9574985085227268 L 0.7063210227272727 1.9574985085227268 L 0.7063210227272727 1.8075517755681814 L 0.5798117897727272 1.5947499289772722 L 0.5236150568181818 1.5947499289772722 Q 0.5134943181818181 1.5947499289772722 0.5089666193181818 1.5874257102272722 Q 0.5044389204545454 1.5801014914772722 0.5044389204545454 1.5702470880681814 Q 0.5044389204545454 1.5614580255681814 0.5096324573863635 1.5546664772727268 Q 0.5148259943181818 1.5478749289772722 0.5241477272727272 1.5478749289772722 L 0.6823508522727272 1.5478749289772722 Q 0.6916725852272727 1.5478749289772722 0.6968661221590908 1.5546664772727268 Q 0.7020596590909091 1.5614580255681814 0.7020596590909091 1.5702470880681814 Q 0.7020596590909091 1.5801014914772722 0.6975319602272727 1.5874257102272722 Q 0.6930042613636362 1.5947499289772722 0.6828835227272727 1.5947499289772722 L 0.6453302556818181 1.5947499289772722 L 0.7478693181818181 1.7670688210227268 L 0.8493430397727272 1.5947499289772722 L 0.8061967329545454 1.5947499289772722 Q 0.7960759943181818 1.5947499289772722 0.7915482954545454 1.5874257102272722 Q 0.787020596590909 1.5801014914772722 0.787020596590909 1.5702470880681814 Q 0.787020596590909 1.5614580255681814 0.7922141335227272 1.5546664772727268 Q 0.7974076704545454 1.5478749289772722 0.8067294034090908 1.5478749289772722 L 0.9375 1.5478749289772722 Q 0.9468217329545454 1.5478749289772722 0.9520152698863635 1.5546664772727268 Q 0.9572088068181817 1.5614580255681814 0.9572088068181817 1.5702470880681814 L 0.9572088068181817 1.5702470880681814 M 1.1226029829545454 1.9820013494318176 Q 1.1226029829545454 1.9721469460227268 1.1269975142045454 1.9648227272727268 Q 1.1313920454545454 1.9574985085227268 1.141512784090909 1.9574985085227268 L 1.2064985795454544 1.9574985085227268 L 1.2064985795454544 1.5947499289772722 L 1.141512784090909 1.5947499289772722 Q 1.1313920454545454 1.5947499289772722 1.1269975142045454 1.5874257102272722 Q 1.1226029829545454 1.5801014914772722 1.1226029829545454 1.5702470880681814 Q 1.1226029829545454 1.5614580255681814 1.127663352272727 1.5546664772727268 Q 1.132723721590909 1.5478749289772722 1.1420454545454544 1.5478749289772722 L 1.3330078125 1.5478749289772722 Q 1.3423295454545454 1.5478749289772722 1.3475230823863635 1.5546664772727268 Q 1.3527166193181817 1.5614580255681814 1.3527166193181817 1.5702470880681814 Q 1.3527166193181817 1.5801014914772722 1.3481889204545454 1.5874257102272722 Q 1.343661221590909 1.5947499289772722 1.3335404829545454 1.5947499289772722 L 1.2688210227272727 1.5947499289772722 L 1.2688210227272727 1.9574985085227268 L 1.3335404829545454 1.9574985085227268 Q 1.343661221590909 1.9574985085227268 1.3481889204545454 1.9648227272727268 Q 1.3527166193181817 1.9721469460227268 1.3527166193181817 1.9820013494318176 Q 1.3527166193181817 1.9907904119318176 1.3475230823863635 1.9975819602272722 Q 1.3423295454545454 2.0043735085227268 1.3330078125 2.0043735085227268 L 1.1420454545454544 2.0043735085227268 Q 1.132723721590909 2.0043735085227268 1.127663352272727 1.9975819602272722 Q 1.1226029829545454 1.9907904119318176 1.1226029829545454 1.9820013494318176 L 1.1226029829545454 1.9820013494318176 M 1.3836115056818181 1.5702470880681814 Q 1.3836115056818181 1.5614580255681814 1.3888050426136365 1.5546664772727268 Q 1.3939985795454546 1.5478749289772722 1.4033203125 1.5478749289772722 L 1.5266335227272727 1.5478749289772722 Q 1.5330255681818181 1.5478749289772722 1.5364879261363635 1.550005610795454 Q 1.5399502840909092 1.552136292613636 1.5423473011363635 1.5571966619318176 L 1.7764559659090908 1.890914701704545 L 1.7764559659090908 1.5947499289772722 L 1.728515625 1.5947499289772722 Q 1.7183948863636362 1.5947499289772722 1.7138671875 1.5874257102272722 Q 1.7093394886363635 1.5801014914772722 1.7093394886363635 1.5702470880681814 Q 1.7093394886363635 1.5614580255681814 1.7145330255681817 1.5546664772727268 Q 1.7197265625 1.5478749289772722 1.7290482954545454 1.5478749289772722 L 1.8840553977272727 1.5478749289772722 Q 1.8933771306818181 1.5478749289772722 1.8984375 1.5546664772727268 Q 1.9034978693181817 1.5614580255681814 1.9034978693181817 1.5702470880681814 Q 1.9034978693181817 1.5801014914772722 1.8991033380681817 1.5874257102272722 Q 1.8947088068181817 1.5947499289772722 1.8845880681818181 1.5947499289772722 L 1.8315873579545454 1.5947499289772722 L 1.8315873579545454 1.9902577414772722 Q 1.8315873579545454 2.000378480113636 1.8245294744318181 2.0073031960227268 Q 1.8174715909090908 2.0142279119318176 1.8076171875 2.0142279119318176 Q 1.7990944602272727 2.0142279119318176 1.7931019176136362 2.0100997159090905 Q 1.787109375 2.005971519886363 1.7831143465909092 2.000112144886363 L 1.5119850852272727 1.616589417613636 L 1.5119850852272727 1.9574985085227268 L 1.5588600852272727 1.9574985085227268 Q 1.5689808238636362 1.9574985085227268 1.5735085227272727 1.9648227272727268 Q 1.5780362215909092 1.9721469460227268 1.5780362215909092 1.9820013494318176 Q 1.5780362215909092 1.9907904119318176 1.5728426846590908 1.9975819602272722 Q 1.5676491477272727 2.0043735085227268 1.5583274147727273 2.0043735085227268 L 1.4033203125 2.0043735085227268 Q 1.3939985795454546 2.0043735085227268 1.3888050426136365 1.9975819602272722 Q 1.3836115056818181 1.9907904119318176 1.3836115056818181 1.9820013494318176 Q 1.3836115056818181 1.9721469460227268 1.3881392045454546 1.9648227272727268 Q 1.3926669034090908 1.9574985085227268 1.4027876420454546 1.9574985085227268 L 1.4557883522727273 1.9574985085227268 L 1.4557883522727273 1.5947499289772722 L 1.4027876420454546 1.5947499289772722 Q 1.3926669034090908 1.5947499289772722 1.3881392045454546 1.5874257102272722 Q 1.3836115056818181 1.5801014914772722 1.3836115056818181 1.5702470880681814 L 1.3836115056818181 1.5702470880681814 M 2.1740944602272725 2.0043735085227268 Q 2.183416193181818 2.0043735085227268 2.1886097301136362 1.9975819602272722 Q 2.193803267045454 1.9907904119318176 2.193803267045454 1.9820013494318176 Q 2.193803267045454 1.9721469460227268 2.189275568181818 1.9648227272727268 Q 2.1847478693181817 1.9574985085227268 2.174627130681818 1.9574985085227268 L 2.0933948863636362 1.9574985085227268 L 2.0933948863636362 1.7955666903409087 L 2.1839488636363633 1.7955666903409087 L 2.1975319602272725 1.845105042613636 Q 2.199662642045454 1.8525624289772722 2.2051225142045454 1.8578891335227268 Q 2.2105823863636362 1.8632158380681814 2.218838778409091 1.8632158380681814 Q 2.2278941761363633 1.8632158380681814 2.2326882102272725 1.857223295454545 Q 2.2374822443181817 1.8512307528409087 2.2374822443181817 1.8419090198863632 L 2.2337535511363633 1.7753252130681814 L 2.2374822443181817 1.7108720880681814 Q 2.2374822443181817 1.701550355113636 2.2326882102272725 1.6955578124999995 Q 2.2278941761363633 1.6895652698863632 2.218838778409091 1.6895652698863632 Q 2.2105823863636362 1.6895652698863632 2.2051225142045454 1.6948919744318176 Q 2.199662642045454 1.7002186789772722 2.1975319602272725 1.7076760653409087 L 2.1839488636363633 1.757214417613636 L 2.0933948863636362 1.757214417613636 L 2.0933948863636362 1.5947499289772722 L 2.3264382102272725 1.5947499289772722 L 2.3498757102272725 1.6629317471590905 Q 2.353338068181818 1.6711881392045451 2.3602627840909087 1.6771806818181814 Q 2.3671875 1.6831732244318176 2.377041903409091 1.6831732244318176 Q 2.385564630681818 1.6831732244318176 2.391157670454545 1.6777133522727268 Q 2.3967507102272725 1.672253480113636 2.3967507102272725 1.663464417613636 Q 2.3967507102272725 1.661333735795454 2.3963512073863633 1.6586703835227268 Q 2.395951704545454 1.6560070312499995 2.3951526988636362 1.6530773437499995 L 2.3749112215909087 1.5686490767045451 Q 2.3717151988636362 1.5593273437499995 2.3671875 1.553601136363636 Q 2.3626598011363633 1.5478749289772722 2.3530717329545454 1.5478749289772722 L 1.9668856534090906 1.5478749289772722 Q 1.9575639204545452 1.5478749289772722 1.952370383522727 1.5546664772727268 Q 1.947176846590909 1.5614580255681814 1.947176846590909 1.5702470880681814 Q 1.947176846590909 1.5801014914772722 1.9517045454545452 1.5874257102272722 Q 1.9562322443181817 1.5947499289772722 1.9663529829545452 1.5947499289772722 L 2.031338778409091 1.5947499289772722 L 2.031338778409091 1.9574985085227268 L 1.9445134943181817 1.9574985085227268 Q 1.934392755681818 1.9574985085227268 1.9298650568181817 1.9648227272727268 Q 1.9253373579545452 1.9721469460227268 1.9253373579545452 1.9820013494318176 Q 1.9253373579545452 1.9907904119318176 1.9305308948863635 1.9975819602272722 Q 1.9357244318181817 2.0043735085227268 1.945046164772727 2.0043735085227268 L 2.1740944602272725 2.0043735085227268 M 2.412730823863636 1.9820013494318176 Q 2.412730823863636 1.9721469460227268 2.417125355113636 1.9648227272727268 Q 2.421519886363636 1.9574985085227268 2.4316406249999996 1.9574985085227268 L 2.496626420454545 1.9574985085227268 L 2.496626420454545 1.5947499289772722 L 2.4316406249999996 1.5947499289772722 Q 2.421519886363636 1.5947499289772722 2.417125355113636 1.5874257102272722 Q 2.412730823863636 1.5801014914772722 2.412730823863636 1.5702470880681814 Q 2.412730823863636 1.5614580255681814 2.417791193181818 1.5546664772727268 Q 2.4228515624999996 1.5478749289772722 2.432173295454545 1.5478749289772722 L 2.6231356534090904 1.5478749289772722 Q 2.632457386363636 1.5478749289772722 2.637650923295454 1.5546664772727268 Q 2.6428444602272725 1.5614580255681814 2.6428444602272725 1.5702470880681814 Q 2.6428444602272725 1.5801014914772722 2.638316761363636 1.5874257102272722 Q 2.6337890624999996 1.5947499289772722 2.623668323863636 1.5947499289772722 L 2.5589488636363633 1.5947499289772722 L 2.5589488636363633 1.9574985085227268 L 2.623668323863636 1.9574985085227268 Q 2.6337890624999996 1.9574985085227268 2.638316761363636 1.9648227272727268 Q 2.6428444602272725 1.9721469460227268 2.6428444602272725 1.9820013494318176 Q 2.6428444602272725 1.9907904119318176 2.637650923295454 1.9975819602272722 Q 2.632457386363636 2.0043735085227268 2.6231356534090904 2.0043735085227268 L 2.432173295454545 2.0043735085227268 Q 2.4228515624999996 2.0043735085227268 2.417791193181818 1.9975819602272722 Q 2.412730823863636 1.9907904119318176 2.412730823863636 1.9820013494318176 L 2.412730823863636 1.9820013494318176 M 2.6737393465909087 1.5702470880681814 Q 2.6737393465909087 1.5614580255681814 2.6789328835227266 1.5546664772727268 Q 2.684126420454545 1.5478749289772722 2.6934481534090904 1.5478749289772722 L 2.8167613636363633 1.5478749289772722 Q 2.8231534090909087 1.5478749289772722 2.826615767045454 1.550005610795454 Q 2.8300781249999996 1.552136292613636 2.832475142045454 1.5571966619318176 L 3.066583806818181 1.890914701704545 L 3.066583806818181 1.5947499289772722 L 3.0186434659090904 1.5947499289772722 Q 3.0085227272727266 1.5947499289772722 3.0039950284090904 1.5874257102272722 Q 2.999467329545454 1.5801014914772722 2.999467329545454 1.5702470880681814 Q 2.999467329545454 1.5614580255681814 3.004660866477272 1.5546664772727268 Q 3.0098544034090904 1.5478749289772722 3.019176136363636 1.5478749289772722 L 3.1741832386363633 1.5478749289772722 Q 3.1835049715909083 1.5478749289772722 3.1885653409090904 1.5546664772727268 Q 3.193625710227272 1.5614580255681814 3.193625710227272 1.5702470880681814 Q 3.193625710227272 1.5801014914772722 3.189231178977272 1.5874257102272722 Q 3.184836647727272 1.5947499289772722 3.1747159090909083 1.5947499289772722 L 3.121715198863636 1.5947499289772722 L 3.121715198863636 1.9902577414772722 Q 3.121715198863636 2.000378480113636 3.1146573153409083 2.0073031960227268 Q 3.107599431818181 2.0142279119318176 3.0977450284090904 2.0142279119318176 Q 3.0892223011363633 2.0142279119318176 3.0832297585227266 2.0100997159090905 Q 3.0772372159090904 2.005971519886363 3.0732421874999996 2.000112144886363 L 2.8021129261363633 1.616589417613636 L 2.8021129261363633 1.9574985085227268 L 2.8489879261363633 1.9574985085227268 Q 2.8591086647727266 1.9574985085227268 2.8636363636363633 1.9648227272727268 Q 2.8681640624999996 1.9721469460227268 2.8681640624999996 1.9820013494318176 Q 2.8681640624999996 1.9907904119318176 2.862970525568181 1.9975819602272722 Q 2.8577769886363633 2.0043735085227268 2.8484552556818175 2.0043735085227268 L 2.6934481534090904 2.0043735085227268 Q 2.684126420454545 2.0043735085227268 2.6789328835227266 1.9975819602272722 Q 2.6737393465909087 1.9907904119318176 2.6737393465909087 1.9820013494318176 Q 2.6737393465909087 1.9721469460227268 2.678267045454545 1.9648227272727268 Q 2.682794744318181 1.9574985085227268 2.692915482954545 1.9574985085227268 L 2.7459161931818175 1.9574985085227268 L 2.7459161931818175 1.5947499289772722 L 2.692915482954545 1.5947499289772722 Q 2.682794744318181 1.5947499289772722 2.678267045454545 1.5874257102272722 Q 2.6737393465909087 1.5801014914772722 2.6737393465909087 1.5702470880681814 L 2.6737393465909087 1.5702470880681814 M 3.225585937499999 1.9820013494318176 Q 3.225585937499999 1.9721469460227268 3.229980468749999 1.9648227272727268 Q 3.234374999999999 1.9574985085227268 3.244495738636363 1.9574985085227268 L 3.3094815340909083 1.9574985085227268 L 3.3094815340909083 1.5947499289772722 L 3.244495738636363 1.5947499289772722 Q 3.234374999999999 1.5947499289772722 3.229980468749999 1.5874257102272722 Q 3.225585937499999 1.5801014914772722 3.225585937499999 1.5702470880681814 Q 3.225585937499999 1.5614580255681814 3.230646306818181 1.5546664772727268 Q 3.235706676136363 1.5478749289772722 3.2450284090909083 1.5478749289772722 L 3.4359907670454537 1.5478749289772722 Q 3.445312499999999 1.5478749289772722 3.4505060369318175 1.5546664772727268 Q 3.455699573863636 1.5614580255681814 3.455699573863636 1.5702470880681814 Q 3.455699573863636 1.5801014914772722 3.451171874999999 1.5874257102272722 Q 3.446644176136363 1.5947499289772722 3.436523437499999 1.5947499289772722 L 3.3718039772727266 1.5947499289772722 L 3.3718039772727266 1.9574985085227268 L 3.436523437499999 1.9574985085227268 Q 3.446644176136363 1.9574985085227268 3.451171874999999 1.9648227272727268 Q 3.455699573863636 1.9721469460227268 3.455699573863636 1.9820013494318176 Q 3.455699573863636 1.9907904119318176 3.4505060369318175 1.9975819602272722 Q 3.445312499999999 2.0043735085227268 3.4359907670454537 2.0043735085227268 L 3.2450284090909083 2.0043735085227268 Q 3.235706676136363 2.0043735085227268 3.230646306818181 1.9975819602272722 Q 3.225585937499999 1.9907904119318176 3.225585937499999 1.9820013494318176 L 3.225585937499999 1.9820013494318176 M 3.504172585227272 1.6890325994318176 Q 3.495383522727272 1.6890325994318176 3.490722656249999 1.6831732244318176 Q 3.4860617897727266 1.6773138494318176 3.4860617897727266 1.6677257812499995 L 3.4900568181818175 1.5686490767045451 Q 3.49032315340909 1.5582620028409087 3.4937855113636354 1.5530684659090905 Q 3.4972478693181808 1.5478749289772722 3.5063032670454537 1.5478749289772722 L 3.8903586647727266 1.5478749289772722 Q 3.8988813920454537 1.5478749289772722 3.902610085227272 1.5532016335227268 Q 3.90633877840909 1.5585283380681814 3.906605113636363 1.5686490767045451 L 3.9106001420454537 1.6677257812499995 Q 3.9106001420454537 1.6773138494318176 3.9059392755681808 1.6831732244318176 Q 3.9012784090909083 1.6890325994318176 3.8924893465909083 1.6890325994318176 Q 3.883167613636363 1.6890325994318176 3.877441406249999 1.6850375710227268 Q 3.8717151988636354 1.681042542613636 3.8706498579545445 1.6711881392045451 L 3.86239346590909 1.5947499289772722 L 3.726562499999999 1.5947499289772722 L 3.726562499999999 1.9574985085227268 L 3.797141335227272 1.9574985085227268 Q 3.8072620738636354 1.9574985085227268 3.8116566051136354 1.9648227272727268 Q 3.8160511363636354 1.9721469460227268 3.8160511363636354 1.9820013494318176 Q 3.8160511363636354 1.9907904119318176 3.8109907670454537 1.9975819602272722 Q 3.805930397727272 2.0043735085227268 3.7966086647727266 2.0043735085227268 L 3.594726562499999 2.0043735085227268 Q 3.5854048295454537 2.0043735085227268 3.5802112926136354 1.9975819602272722 Q 3.5750177556818175 1.9907904119318176 3.5750177556818175 1.9820013494318176 Q 3.5750177556818175 1.9721469460227268 3.5795454545454537 1.9648227272727268 Q 3.58407315340909 1.9574985085227268 3.5941938920454537 1.9574985085227268 L 3.6645063920454537 1.9574985085227268 L 3.6645063920454537 1.5947499289772722 L 3.5340021306818175 1.5947499289772722 L 3.5260120738636354 1.6711881392045451 Q 3.5249467329545445 1.6813088778409087 3.5192205255681808 1.6851707386363632 Q 3.5134943181818175 1.6890325994318176 3.504172585227272 1.6890325994318176 L 3.504172585227272 1.6890325994318176 M 4.23153409090909 1.8315219460227268 Q 4.23153409090909 1.8408436789772722 4.226740056818181 1.8468362215909087 Q 4.221946022727272 1.852828764204545 4.212890624999999 1.852828764204545 Q 4.204634232954545 1.852828764204545 4.199174360795453 1.8475020596590905 Q 4.193714488636362 1.842175355113636 4.191583806818181 1.8347179687499995 L 4.178000710227272 1.7851796164772722 L 4.089044744318181 1.7851796164772722 L 4.089044744318181 1.9574985085227268 L 4.324218749999999 1.9574985085227268 L 4.355113636363636 1.8696078835227268 Q 4.358842329545453 1.8613514914772722 4.365500710227272 1.855358948863636 Q 4.37215909090909 1.8493664062499995 4.382546164772727 1.8493664062499995 Q 4.391335227272727 1.8493664062499995 4.396661931818181 1.854693110795454 Q 4.401988636363636 1.8600198153409087 4.401988636363636 1.8690752130681814 Q 4.401988636363636 1.8717385653409087 4.401589133522727 1.874401917613636 Q 4.4011896306818175 1.8770652698863632 4.400390624999999 1.8794622869318176 L 4.3836115056818175 1.983599360795454 Q 4.38094815340909 1.9931874289772722 4.376154119318181 1.9987804687499995 Q 4.371360085227272 2.0043735085227268 4.361772017045453 2.0043735085227268 L 3.9516157670454537 2.0043735085227268 Q 3.9422940340909083 2.0043735085227268 3.93710049715909 1.9975819602272722 Q 3.931906960227272 1.9907904119318176 3.931906960227272 1.9820013494318176 Q 3.931906960227272 1.9721469460227268 3.9364346590909083 1.9648227272727268 Q 3.9409623579545445 1.9574985085227268 3.9510830965909083 1.9574985085227268 L 4.026988636363636 1.9574985085227268 L 4.026988636363636 1.5947499289772722 L 3.9782492897727266 1.5947499289772722 Q 3.968128551136363 1.5947499289772722 3.963734019886363 1.5874257102272722 Q 3.959339488636363 1.5801014914772722 3.959339488636363 1.5702470880681814 Q 3.959339488636363 1.5614580255681814 3.9643998579545445 1.5546664772727268 Q 3.9694602272727266 1.5478749289772722 3.978781960227272 1.5478749289772722 L 4.350852272727272 1.5478749289772722 Q 4.36044034090909 1.5478749289772722 4.364968039772727 1.553601136363636 Q 4.369495738636362 1.5593273437499995 4.372691761363636 1.5686490767045451 L 4.3982599431818175 1.6530773437499995 Q 4.399058948863636 1.6560070312499995 4.399458451704545 1.6586703835227268 Q 4.399857954545453 1.661333735795454 4.399857954545453 1.663464417613636 Q 4.399857954545453 1.672253480113636 4.394398082386362 1.6777133522727268 Q 4.388938210227272 1.6831732244318176 4.380415482954545 1.6831732244318176 Q 4.370561079545453 1.6831732244318176 4.363503196022727 1.6771806818181814 Q 4.356445312499999 1.6711881392045451 4.352982954545453 1.6629317471590905 L 4.324218749999999 1.5947499289772722 L 4.089044744318181 1.5947499289772722 L 4.089044744318181 1.7468273437499995 L 4.178000710227272 1.7468273437499995 L 4.191583806818181 1.6972889914772722 Q 4.193714488636362 1.689831605113636 4.199174360795453 1.6845049005681814 Q 4.204634232954545 1.6791781960227268 4.212890624999999 1.6791781960227268 Q 4.221946022727272 1.6791781960227268 4.226740056818181 1.6851707386363632 Q 4.23153409090909 1.6911632812499995 4.23153409090909 1.700485014204545 L 4.227539062499999 1.764938139204545 L 4.23153409090909 1.8315219460227268 M 4.811079545454545 2.0043735085227268 Q 4.82040127840909 2.0043735085227268 4.825594815340908 1.9975819602272722 Q 4.830788352272727 1.9907904119318176 4.830788352272727 1.9820013494318176 Q 4.830788352272727 1.9721469460227268 4.82626065340909 1.9648227272727268 Q 4.821732954545453 1.9574985085227268 4.81161221590909 1.9574985085227268 L 4.730379971590908 1.9574985085227268 L 4.730379971590908 1.7955666903409087 L 4.820933948863636 1.7955666903409087 L 4.834517045454545 1.845105042613636 Q 4.836647727272727 1.8525624289772722 4.8421075994318175 1.8578891335227268 Q 4.847567471590908 1.8632158380681814 4.855823863636362 1.8632158380681814 Q 4.864879261363636 1.8632158380681814 4.869673295454545 1.857223295454545 Q 4.874467329545453 1.8512307528409087 4.874467329545453 1.8419090198863632 L 4.870738636363636 1.7753252130681814 L 4.874467329545453 1.7108720880681814 Q 4.874467329545453 1.701550355113636 4.869673295454545 1.6955578124999995 Q 4.864879261363636 1.6895652698863632 4.855823863636362 1.6895652698863632 Q 4.847567471590908 1.6895652698863632 4.8421075994318175 1.6948919744318176 Q 4.836647727272727 1.7002186789772722 4.834517045454545 1.7076760653409087 L 4.820933948863636 1.757214417613636 L 4.730379971590908 1.757214417613636 L 4.730379971590908 1.5947499289772722 L 4.963423295454545 1.5947499289772722 L 4.986860795454545 1.6629317471590905 Q 4.99032315340909 1.6711881392045451 4.997247869318181 1.6771806818181814 Q 5.004172585227272 1.6831732244318176 5.014026988636362 1.6831732244318176 Q 5.02254971590909 1.6831732244318176 5.0281427556818175 1.6777133522727268 Q 5.033735795454545 1.672253480113636 5.033735795454545 1.663464417613636 Q 5.033735795454545 1.661333735795454 5.033336292613636 1.6586703835227268 Q 5.032936789772727 1.6560070312499995 5.032137784090908 1.6530773437499995 L 5.011896306818181 1.5686490767045451 Q 5.008700284090908 1.5593273437499995 5.004172585227272 1.553601136363636 Q 4.999644886363636 1.5478749289772722 4.9900568181818175 1.5478749289772722 L 4.603870738636362 1.5478749289772722 Q 4.5945490056818175 1.5478749289772722 4.589355468749999 1.5546664772727268 Q 4.584161931818181 1.5614580255681814 4.584161931818181 1.5702470880681814 Q 4.584161931818181 1.5801014914772722 4.5886896306818175 1.5874257102272722 Q 4.593217329545453 1.5947499289772722 4.6033380681818175 1.5947499289772722 L 4.668323863636362 1.5947499289772722 L 4.668323863636362 1.9574985085227268 L 4.581498579545453 1.9574985085227268 Q 4.57137784090909 1.9574985085227268 4.566850142045453 1.9648227272727268 Q 4.5623224431818175 1.9721469460227268 4.5623224431818175 1.9820013494318176 Q 4.5623224431818175 1.9907904119318176 4.567515980113636 1.9975819602272722 Q 4.572709517045453 2.0043735085227268 4.582031249999999 2.0043735085227268 L 4.811079545454545 2.0043735085227268 M 5.457475142045454 1.773727201704545 Q 5.457475142045454 1.6879672585227268 5.406205610795454 1.6413585937499995 Q 5.354936079545454 1.5947499289772722 5.26864346590909 1.5947499289772722 L 5.19247159090909 1.5947499289772722 L 5.19247159090909 1.9574985085227268 Q 5.201793323863636 1.9580311789772722 5.210848721590908 1.958297514204545 Q 5.219904119318181 1.9585638494318176 5.228959517045454 1.9585638494318176 Q 5.3299005681818175 1.9585638494318176 5.393687855113636 1.9178145596590905 Q 5.457475142045454 1.8770652698863632 5.457475142045454 1.773727201704545 L 5.457475142045454 1.773727201704545 M 5.521928267045454 1.773727201704545 Q 5.521928267045454 1.886120667613636 5.447887073863636 1.9452470880681814 Q 5.3738458806818175 2.0043735085227268 5.261186079545454 2.0043735085227268 L 5.059303977272727 2.0043735085227268 Q 5.049982244318181 2.0043735085227268 5.044788707386363 1.9975819602272722 Q 5.039595170454545 1.9907904119318176 5.039595170454545 1.9820013494318176 Q 5.039595170454545 1.9721469460227268 5.044122869318181 1.9648227272727268 Q 5.0486505681818175 1.9574985085227268 5.058771306818181 1.9574985085227268 L 5.1301491477272725 1.9574985085227268 L 5.1301491477272725 1.5947499289772722 L 5.076083096590908 1.5947499289772722 Q 5.065962357954545 1.5947499289772722 5.061567826704545 1.5874257102272722 Q 5.057173295454545 1.5801014914772722 5.057173295454545 1.5702470880681814 Q 5.057173295454545 1.5614580255681814 5.062366832386363 1.5546664772727268 Q 5.067560369318181 1.5478749289772722 5.076882102272727 1.5478749289772722 L 5.261186079545454 1.5478749289772722 Q 5.376242897727272 1.5478749289772722 5.449085582386363 1.6039384943181814 Q 5.521928267045454 1.6600020596590905 5.521928267045454 1.773727201704545 L 5.521928267045454 1.773727201704545 M 5.796519886363635 2.011031889204545 Q 5.7166193181818175 2.011031889204545 5.665749289772727 1.966687073863636 Q 5.614879261363635 1.9223422585227268 5.614879261363635 1.8435070312499995 L 5.614879261363635 1.5947499289772722 L 5.574662642045453 1.5947499289772722 Q 5.56454190340909 1.5947499289772722 5.560014204545453 1.5874257102272722 Q 5.5554865056818175 1.5801014914772722 5.5554865056818175 1.5702470880681814 Q 5.5554865056818175 1.5614580255681814 5.560680042613635 1.5546664772727268 Q 5.565873579545453 1.5478749289772722 5.575195312499999 1.5478749289772722 L 5.730735085227272 1.5478749289772722 Q 5.7400568181818175 1.5478749289772722 5.745117187499999 1.5546664772727268 Q 5.750177556818181 1.5614580255681814 5.750177556818181 1.5702470880681814 Q 5.750177556818181 1.5801014914772722 5.745783025568181 1.5874257102272722 Q 5.741388494318181 1.5947499289772722 5.7312677556818175 1.5947499289772722 L 5.677201704545453 1.5947499289772722 L 5.677201704545453 1.8435070312499995 Q 5.677201704545453 1.9002364346590905 5.708229758522727 1.9317971590909087 Q 5.739257812499999 1.9633578835227268 5.796519886363635 1.9633578835227268 Q 5.84872159090909 1.9633578835227268 5.880015980113635 1.9297996448863632 Q 5.911310369318181 1.8962414062499995 5.911310369318181 1.844039701704545 L 5.911310369318181 1.5947499289772722 L 5.86044034090909 1.5947499289772722 Q 5.850319602272727 1.5947499289772722 5.84579190340909 1.5874257102272722 Q 5.841264204545453 1.5801014914772722 5.841264204545453 1.5702470880681814 Q 5.841264204545453 1.5614580255681814 5.846457741477272 1.5546664772727268 Q 5.85165127840909 1.5478749289772722 5.860973011363635 1.5478749289772722 L 6.008256392045453 1.5478749289772722 Q 6.017578124999999 1.5478749289772722 6.0227716619318175 1.5546664772727268 Q 6.027965198863635 1.5614580255681814 6.027965198863635 1.5702470880681814 Q 6.027965198863635 1.5801014914772722 6.023437499999999 1.5874257102272722 Q 6.018909801136362 1.5947499289772722 6.008789062499999 1.5947499289772722 L 5.962446732954544 1.5947499289772722 L 5.962446732954544 1.844039701704545 Q 5.962446732954544 1.9180808948863632 5.916370738636362 1.964556392045454 Q 5.870294744318181 2.011031889204545 5.796519886363635 2.011031889204545 L 5.796519886363635 2.011031889204545" fill="#343432" fill-rule="nonzero"></path></g><g clip-path="url(#SvgjsClipPath1002)"><g clip-path="url(#ac75efc67-c8db-489c-bf4d-19bd7ee078e34cc36aee-f40e-4532-bf27-245f84b227ed)"><path d=" M -2.839498892698802 0.7052449261636059 C -2.730594428307607 0.6090205969620154 -2.626107068066545 0.5116919917228917 -2.5161173668798433 0.4205701793843851 C -2.266493864671285 0.21376593249327386 -1.997469374837792 0.03447339033035772 -1.667119486437159 -0.021920844551935676 C -1.3213858904791689 -0.08094249483387694 -0.9962908328778317 -0.011487339921450561 -0.7153858560198447 0.19558345635803073 C -0.42240999971709936 0.4115455786638561 -0.3865400677393005 0.7213711641599944 -0.4145848712442346 1.0482368712697898 C -0.46092638633657224 1.5882659321075252 -1.0382723615461158 2.0282247368543302 -1.62420503490958 2.0458931534548594 C -1.939513922109331 2.055412774468076 -2.2121368286858196 1.95585657791186 -2.465453943847506 1.798935145130002 C -2.6787315330276047 1.6668028054665596 -2.8783008679486715 1.5131942007973012 -3.078193869984188 1.3620035798653998 C -3.13982389642375 1.3153955153846926 -3.1671642479737074 1.3245914692834593 -3.2178657494900973 1.3743410086985282 C -3.3721978453563604 1.5257410612927205 -3.524340428389584 1.6815962965210978 -3.6947797230102086 1.814813872980047 C -4.075983426863443 2.112797049935744 -4.487726074927075 2.098403382963761 -4.890215651365861 1.8729216396447195 C -5.498671748046595 1.532062089645496 -5.628804967297262 0.8827097010919843 -5.182334741777416 0.35663640465962415 C -4.89219573253661 0.014729696348946927 -4.486126778596855 -0.0724700321321147 -4.048776350007671 0.013435027891149393 C -3.6806145269425428 0.0857460691075406 -3.3883431225947755 0.3086384755109875 -3.091540378644717 0.5159567819368125 C -3.0068157516270917 0.5751307461549653 -2.926222640129202 0.6398641690448362 -2.839498892698802 0.7052449261636059 M -1.778004031999103 0.29011329301926875 C -1.8486776984012212 0.29628200743583294 -1.920950661133559 0.29538716306059065 -1.9897775210591129 0.30983794775865303 C -2.2958142973919915 0.37405731111381024 -2.5075877864520018 0.5696855229354055 -2.691602060637473 0.7984229766409673 C -2.706071884577562 0.8163960211139197 -2.694515064667517 0.8758746132044953 -2.6740478794891023 0.8948948159889014 C -2.4563722254008975 1.0973009979719066 -2.2337273291437945 1.2946998593019605 -1.965521526717438 1.4350952300048747 C -1.6508028560205066 1.5998608305016226 -1.3215191651733535 1.6632234279655904 -0.9776894934180067 1.5362888013753642 C -0.5658135706601897 1.3842223753102465 -0.4806510410759568 0.9156095113136601 -0.8165984666323602 0.6418823286996381 C -1.091905906334576 0.417523900660156 -1.413174076288601 0.29652951758217666 -1.7780040319991026 0.29011329301926886 M -4.046167973850049 1.677693251905679 C -3.7435963395659817 1.6665743345622426 -3.48262544910967 1.5336994644597692 -3.293508658061114 1.2682162736431926 C -3.2461390238993495 1.2017312404868898 -3.24800486961794 1.1554468431206322 -3.3140520002076355 1.1017752198481185 C -3.4463366538072893 0.9942415808828269 -3.5678070179359294 0.8738374143076669 -3.7034806566162883 0.7707208794925078 C -3.894691764287751 0.6254133843467738 -4.083637202158069 0.47205228982385894 -4.293716198677727 0.3564269729973335 C -4.587567860113688 0.19470765122481473 -4.9122440543904435 0.27981306308296855 -5.0945257575515095 0.5334728846011305 C -5.277454794941475 0.7880085112525086 -5.248438990093192 1.1072394823097045 -4.997387544732651 1.3139485329906837 C -4.734493690831669 1.5304437540732492 -4.429713504472534 1.6696777310125512 -4.04616797385005 1.677693251905679" fill="#343432" transform="matrix(1,0,0,1,0,0)" fill-rule="nonzero"></path></g><g clip-path="url(#ac75efc67-c8db-489c-bf4d-19bd7ee078e34cc36aee-f40e-4532-bf27-245f84b227ed)"><path d=" M -2.839498892698802 0.7052449261636059 C -2.730594428307607 0.6090205969620154 -2.626107068066545 0.5116919917228917 -2.5161173668798433 0.4205701793843851 C -2.266493864671285 0.21376593249327386 -1.997469374837792 0.03447339033035772 -1.667119486437159 -0.021920844551935676 C -1.3213858904791689 -0.08094249483387694 -0.9962908328778317 -0.011487339921450561 -0.7153858560198447 0.19558345635803073 C -0.42240999971709936 0.4115455786638561 -0.3865400677393005 0.7213711641599944 -0.4145848712442346 1.0482368712697898 C -0.46092638633657224 1.5882659321075252 -1.0382723615461158 2.0282247368543302 -1.62420503490958 2.0458931534548594 C -1.939513922109331 2.055412774468076 -2.2121368286858196 1.95585657791186 -2.465453943847506 1.798935145130002 C -2.6787315330276047 1.6668028054665596 -2.8783008679486715 1.5131942007973012 -3.078193869984188 1.3620035798653998 C -3.13982389642375 1.3153955153846926 -3.1671642479737074 1.3245914692834593 -3.2178657494900973 1.3743410086985282 C -3.3721978453563604 1.5257410612927205 -3.524340428389584 1.6815962965210978 -3.6947797230102086 1.814813872980047 C -4.075983426863443 2.112797049935744 -4.487726074927075 2.098403382963761 -4.890215651365861 1.8729216396447195 C -5.498671748046595 1.532062089645496 -5.628804967297262 0.8827097010919843 -5.182334741777416 0.35663640465962415 C -4.89219573253661 0.014729696348946927 -4.486126778596855 -0.0724700321321147 -4.048776350007671 0.013435027891149393 C -3.6806145269425428 0.0857460691075406 -3.3883431225947755 0.3086384755109875 -3.091540378644717 0.5159567819368125 C -3.0068157516270917 0.5751307461549653 -2.926222640129202 0.6398641690448362 -2.839498892698802 0.7052449261636059 Z M -1.778004031999103 0.29011329301926875 C -1.8486776984012212 0.29628200743583294 -1.920950661133559 0.29538716306059065 -1.9897775210591129 0.30983794775865303 C -2.2958142973919915 0.37405731111381024 -2.5075877864520018 0.5696855229354055 -2.691602060637473 0.7984229766409673 C -2.706071884577562 0.8163960211139197 -2.694515064667517 0.8758746132044953 -2.6740478794891023 0.8948948159889014 C -2.4563722254008975 1.0973009979719066 -2.2337273291437945 1.2946998593019605 -1.965521526717438 1.4350952300048747 C -1.6508028560205066 1.5998608305016226 -1.3215191651733535 1.6632234279655904 -0.9776894934180067 1.5362888013753642 C -0.5658135706601897 1.3842223753102465 -0.4806510410759568 0.9156095113136601 -0.8165984666323602 0.6418823286996381 C -1.091905906334576 0.417523900660156 -1.413174076288601 0.29652951758217666 -1.7780040319991026 0.29011329301926886 Z M -4.04616797385005 1.677693251905679 C -3.743596339565982 1.6665743345622424 -3.48262544910967 1.533699464459769 -3.2935086580611146 1.2682162736431926 C -3.24613902389935 1.2017312404868896 -3.24800486961794 1.155446843120632 -3.3140520002076355 1.1017752198481183 C -3.4463366538072893 0.9942415808828267 -3.5678070179359294 0.8738374143076667 -3.7034806566162883 0.7707208794925077 C -3.894691764287751 0.6254133843467737 -4.083637202158069 0.47205228982385883 -4.293716198677727 0.35642697299733334 C -4.587567860113688 0.1947076512248145 -4.9122440543904435 0.27981306308296844 -5.0945257575515095 0.5334728846011304 C -5.277454794941475 0.7880085112525084 -5.248438990093192 1.1072394823097043 -4.997387544732651 1.3139485329906837 C -4.734493690831669 1.5304437540732492 -4.429713504472534 1.6696777310125508 -4.04616797385005 1.677693251905679 Z" fill="none" transform="matrix(1,0,0,1,0,0)" fill-rule="nonzero" stroke-dasharray="none" stroke-miterlimit="10" stroke-linejoin="miter" stroke-linecap="butt" stroke-width="0.013536901080793603" stroke="#aac527"></path></g></g></g><defs><clipPath id="SvgjsClipPath1002"><path d=" M -5.454388927763728 -0.04891558112687999 h 5.0543889277637275 v 2.1022046707764868 h -5.0543889277637275 Z"></path></clipPath><clipPath id="ac75efc67-c8db-489c-bf4d-19bd7ee078e34cc36aee-f40e-4532-bf27-245f84b227ed"><path d=" M -5.454386471093113 2.0532994186031424 L -0.40000081185198866 2.0532994186031424 L -0.40000081185198866 -0.04891848974541731 L -5.454386471093113 -0.04891848974541731 Z"></path></clipPath></defs></svg>